# xmcd CD database file
#
# Track frame offsets:
#	150
#	18666
#	34081
#	49757
#	68645
#	87545
#	104111
#	124126
#	142433
#	159861
#	175250
#	192295
#	213011
#	231811
#	249456
#	270132
#	286549
#	300588
#	316214
#
# Disc length: 4471 seconds
#
# Revision: 0
# Processed by: cddbd v1.5.2PL0 Copyright (c) Steve Scherf et al.
# Submitted via: CDex 1.70beta2
#
DISCID=07117513
DTITLE=テレサ・テン - シングルコレクションdisk2
DYEAR=2007
DGENRE=Blues
TTITLE0=東京夜景
TTITLE1=手紙
TTITLE2=あなた
TTITLE3=まごころ
TTITLE4=ジェルソミーナの歩いた道
TTITLE5=西海岸から
TTITLE6=ふたたびの
TTITLE7=旅人
TTITLE8=つぐない
TTITLE9=笑って乾杯
TTITLE10=愛人
TTITLE11=雨に濡れて
TTITLE12=時の流れに身をまかせ
TTITLE13=黄昏
TTITLE14=春を待つ花
TTITLE15=香港の夜
TTITLE16=逢う時はいつも他人
TTITLE17=スキャンダル
TTITLE18=傷心
EXTD=YEAR: 2007
EXTT0=
EXTT1=
EXTT2=
EXTT3=
EXTT4=
EXTT5=
EXTT6=
EXTT7=
EXTT8=
EXTT9=
EXTT10=
EXTT11=
EXTT12=
EXTT13=
EXTT14=
EXTT15=
EXTT16=
EXTT17=
EXTT18=
PLAYORDER=
